<svg xmlns="http://www.w3.org/2000/svg" viewBox="0 0 736.57 458.88"><defs><style>.cls-1,.cls-2,.cls-4{fill:none;}.cls-1,.cls-2,.cls-3{stroke:#fb8627;}.cls-1,.cls-2,.cls-3,.cls-4{stroke-linecap:round;stroke-width:2px;}.cls-1,.cls-4{stroke-miterlimit:10;}.cls-2,.cls-3{stroke-linejoin:round;}.cls-3{fill:#fb8627;}.cls-4{stroke:#fff;}.cls-5{fill:#030a21;}</style></defs><g id="Layer_2" data-name="Layer 2"><g id="Layer_1-2" data-name="Layer 1"><path class="cls-1" d="M735.53,354.45c-15.88,10.57-58.27,35.72-117.36,35.2-67-.6-112.24-33.84-126.38-44.55-12.84-9.71-59.61-47.34-77.63-111.38-10.17-36.14-8.12-69.86-7.25-82.66a241.87,241.87,0,0,1,6.38-42.35c12.41-48.55,44.1-83.43,66.94-103.66"/><path class="cls-2" d="M487.78,9a202.65,202.65,0,0,0-56.46,74.45,206.86,206.86,0,0,0-7,146.36l10.73-3.39"/><path class="cls-3" d="M504,326l-7.88,8.49c18.9,17.28,43.83,33.94,75,41,3.85.88,7,1.42,9.53,1.85,16.46,2.82,48,8.38,82.88,1.26,30.63-6.25,53.37-20.22,66.27-29.44,2.35-1.68,4.27-3.15,5.6-4.18l-3-9.27q-.93-2.82-1.84-5.64a182,182,0,0,1-169.1,27.45,208.69,208.69,0,0,1-33.11-15.17,218.43,218.43,0,0,1-19.27-12.27Z"/><path class="cls-3" d="M437.53,233.45l-9,4c13.33,41.49,33.39,69.75,52,89q2.48,2.57,5,5l11-11a142.57,142.57,0,0,1-52-69Q441,242.45,437.53,233.45Z"/><path class="cls-4" d="M504.15,15.16c-12.35,10.49-74.59,65.36-77.33,148.12-1.25,37.72,10.27,69,13,76a197.65,197.65,0,0,0,44.54,68.85c7.89,7.91,48.37,47.12,112.37,56.26A189.71,189.71,0,0,0,627,366.31a175.34,175.34,0,0,0,66.53-14.53,164.83,164.83,0,0,0,36.59-22.61"/><path class="cls-5" d="M736.5,356.12c-16,10.64-58.77,35.95-118.39,35.38-67.62-.65-113.27-34.17-127.55-45-13-9.8-60.18-47.74-78.41-112.26-10.28-36.42-8.24-70.38-7.37-83.28.45-6.58,1.71-24.28,6.41-42.66,12.48-48.9,44.43-84,67.47-104.38L3.71,0,0,458.36l736.57.52Z"/></g></g></svg>