<svg xmlns="http://www.w3.org/2000/svg" viewBox="0 0 331.39 386.6"><defs><style>.cls-1,.cls-2,.cls-4{fill:none;}.cls-1,.cls-2,.cls-3{stroke:#fb8627;}.cls-1,.cls-2,.cls-3,.cls-4{stroke-linecap:round;stroke-width:2px;}.cls-1,.cls-4{stroke-miterlimit:10;}.cls-2,.cls-3{stroke-linejoin:round;}.cls-3{fill:#fb8627;}.cls-4{stroke:#fff;}</style></defs><g id="Layer_2" data-name="Layer 2"><g id="Layer_1-2" data-name="Layer 1"><path class="cls-1" d="M75.1,1C52.25,21.22,20.56,56.11,8.15,104.66A240.46,240.46,0,0,0,1.78,147C.9,159.81-1.14,193.52,9,229.67c18,64,64.8,101.67,77.63,111.38C100.79,351.75,146,385,213,385.59c59.08.53,101.47-24.62,117.35-35.19"/><path class="cls-2" d="M82.65,4.92A202.46,202.46,0,0,0,26.18,79.38a206.85,206.85,0,0,0-7,146.36l10.73-3.4"/><path class="cls-3" d="M98.83,322,91,330.46c18.9,17.28,43.83,33.94,75,41,3.85.87,7,1.42,9.54,1.85,16.46,2.82,48,8.37,82.87,1.25,30.64-6.25,53.37-20.21,66.27-29.44,2.35-1.68,4.27-3.14,5.61-4.18l-3-9.27q-.92-2.82-1.84-5.64a179.68,179.68,0,0,1-96.25,36.68,183.14,183.14,0,0,1-72.85-9.23,209.22,209.22,0,0,1-33.11-15.16A218.43,218.43,0,0,1,103.91,326Z"/><path class="cls-3" d="M32.39,229.4l-9,4c13.33,41.49,33.4,69.74,52,89,1.65,1.71,3.32,3.37,5,5l11-11a142.57,142.57,0,0,1-52-69Z"/><path class="cls-4" d="M99,11.1C86.66,21.59,24.42,76.46,21.68,159.22c-1.25,37.72,10.27,69,13,76a197.58,197.58,0,0,0,44.54,68.86c7.89,7.91,48.37,47.12,112.37,56.25a188.92,188.92,0,0,0,30.29,1.89,175.75,175.75,0,0,0,66.53-14.53A165.37,165.37,0,0,0,325,325.12"/></g></g></svg>