<svg xmlns="http://www.w3.org/2000/svg" viewBox="0 0 399.13 388.99"><defs><style>.cls-1{fill:#fff;}.cls-2{fill:#030a21;}.cls-3{fill:none;stroke:#fb8627;stroke-linecap:round;stroke-miterlimit:10;stroke-width:2px;}</style></defs><g id="Layer_2" data-name="Layer 2"><g id="Layer_1-2" data-name="Layer 1"><polyline class="cls-1" points="319.66 387.99 0.11 387.99 0.11 291.6 0.51 213.48 156.77 210.52"/><path class="cls-1" d="M.11,0V306.21h55s16-4.54,19-6.8,19-18.15,19-18.15l23-26.09,17-18.14s17-13.61,31-1.13a289.26,289.26,0,0,1,27,28.35l101,110s12,12.47,25,13.61,82,1.13,82,1.13V128.15l-102,112.28s-11,11.34-31,11.34-28,1.14-43-11.34-32-32.89-32-32.89Z"/><path class="cls-2" d="M.11,28.21v270h55s16-4,19-6,19-16,19-16l23-23,17-16s17-12,31-1a274,274,0,0,1,27,25l101,97s12,11,25,12,82,1,82,1v-230l-102,99s-11,10-31,10-28,1-43-10-32-29-32-29Z"/><path class="cls-3" d="M1,54.7,294.64,349.12s11.93,9,19.89,11,83.6,2.14,83.6,2.14"/></g></g></svg>