<svg width="666" height="150" viewBox="0 0 666 150" fill="none" xmlns="http://www.w3.org/2000/svg">
<path d="M394.86 46.5698V147.43H365.61V132.7C362.624 137.818 358.29 142.017 353.08 144.84C347.689 147.676 341.671 149.114 335.58 149.02C322.98 149.02 313.563 145.503 307.33 138.47C301.097 131.436 297.987 120.826 298 106.64V46.5698H328V107.24C328 119.44 333.237 125.54 343.71 125.54C349.937 125.54 354.977 123.42 358.83 119.18C362.683 114.94 364.607 109.37 364.6 102.47V46.5698H394.86ZM509.56 0.569824V147.43H479.92V132.51C476.849 137.695 472.368 141.902 467 144.64C461.154 147.625 454.664 149.129 448.1 149.02C439.906 149.155 431.86 146.832 425 142.35C418.079 137.724 412.601 131.243 409.19 123.65C405.41 115.65 403.52 106.466 403.52 96.0998C403.52 85.7332 405.41 76.6165 409.19 68.7498C412.595 61.2898 418.042 54.9455 424.9 50.4498C431.833 46.0774 439.895 43.8348 448.09 43.9998C454.511 43.9209 460.856 45.3889 466.59 48.2798C471.931 50.923 476.414 55.0245 479.52 60.1098V0.569824H509.56ZM474 118.48C478 113.38 480 106.046 480 96.4798C480 87.0598 477.977 79.7998 473.93 74.6998C469.883 69.5998 464.217 67.0465 456.93 67.0398C449.497 67.0398 443.727 69.5598 439.62 74.5998C435.513 79.6398 433.46 86.7998 433.46 96.0798C433.46 105.626 435.513 113.02 439.62 118.26C443.727 123.5 449.497 126.12 456.93 126.12C464.31 126.133 470 123.586 474 118.48V118.48ZM624.26 46.5698V147.43H594.61V132.51C591.539 137.699 587.054 141.906 581.68 144.64C575.835 147.617 569.348 149.114 562.79 149C554.602 149.221 546.533 147.004 539.609 142.629C532.684 138.254 527.216 131.919 523.9 124.43C520.12 116.543 518.23 107.426 518.23 97.0798C518.23 86.7331 520.12 77.5132 523.9 69.4198C527.291 61.7901 532.772 55.2757 539.71 50.6298C546.569 46.1659 554.607 43.8568 562.79 43.9998C569.374 43.8942 575.876 45.4706 581.68 48.5798C587.038 51.4273 591.511 55.6926 594.61 60.9098V46.5698H624.26ZM588.65 118.57C592.65 113.53 594.65 106.236 594.65 96.6898C594.65 87.1432 592.65 79.8098 588.65 74.6898C584.65 69.5765 578.947 67.0231 571.54 67.0298C564.133 67.0365 558.363 69.6932 554.23 74.9998C550.123 80.3332 548.067 87.6965 548.06 97.0898C548.053 106.483 550.077 113.676 554.13 118.67C558.177 123.636 563.98 126.123 571.54 126.13C578.96 126.136 584.663 123.62 588.65 118.58V118.57ZM291.89 148.85H254.62L214.52 103.12V148.85H184.1V0.569824H214.52V90.6198L252.8 46.9098H289.27L245.95 95.9098L291.89 148.85ZM100.76 148.9L42.38 81.6998L74.26 148.9H52.16L19.64 80.3898L33.16 148.9H19.58L6.04997 80.2898V148.9H0.719971V0.569824H6.04997V74.5698L19.77 0.569824H33.31L19.53 74.8898L52.68 0.569824H74.54L41.52 74.6198L101.48 0.569824H135.74L73.72 77.1798L136.03 148.9H100.76Z" fill="#41276D"/>
<path d="M649.45 147.27C658.546 147.27 665.92 139.896 665.92 130.8C665.92 121.704 658.546 114.33 649.45 114.33C640.354 114.33 632.98 121.704 632.98 130.8C632.98 139.896 640.354 147.27 649.45 147.27Z" fill="#41276D"/>
</svg>
