<?xml version="1.0" encoding="UTF-8"?>
<!DOCTYPE svg PUBLIC "-//W3C//DTD SVG 1.1//EN" "http://www.w3.org/Graphics/SVG/1.1/DTD/svg11.dtd">
<!-- Creator: CorelDRAW X8 -->
<svg xmlns="http://www.w3.org/2000/svg" xml:space="preserve" width="1.35726in" height="0.432976in" version="1.1" style="shape-rendering:geometricPrecision; text-rendering:geometricPrecision; image-rendering:optimizeQuality; fill-rule:evenodd; clip-rule:evenodd"
viewBox="0 0 378 120"
 xmlns:xlink="http://www.w3.org/1999/xlink">
 <defs>
  <style type="text/css">
   <![CDATA[
    .fil0 {fill:#EC6A04}
   ]]>
  </style>
 </defs>
 <g id="Layer_x0020_1">
  <metadata id="CorelCorpID_0Corel-Layer"/>
  <g id="_2727732416560">
   <polygon class="fil0" points="86,47 73,64 132,64 132,120 114,120 114,81 37,81 63,47 "/>
   <path class="fil0" d="M4 31l93 2 2 -4 -66 1c-5,0 -26,0 -29,1z"/>
   <path class="fil0" d="M0 37c19,0 38,0 57,1l35 0 3 -3 -95 2z"/>
   <polygon class="fil0" points="29,42 26,43 88,45 90,41 "/>
   <path class="fil0" d="M34 25c1,0 45,1 53,1 5,1 9,1 14,1l3 -4 -70 2z"/>
   <polygon class="fil0" points="26,43 29,42 24,43 "/>
   <path class="fil0" d="M21 8l93 2 3 -4 -68 1c-4,1 -26,1 -28,1z"/>
   <path class="fil0" d="M17 14c19,0 37,1 56,1l37 1 2 -4 -95 2z"/>
   <polygon class="fil0" points="46,20 43,20 105,22 108,18 "/>
   <path class="fil0" d="M51 2c1,0 45,1 53,2 5,0 10,0 14,0l4 -4 -71 2z"/>
   <polygon class="fil0" points="43,20 46,20 41,20 "/>
   <path class="fil0" d="M316 62l26 13 0 0 4 -3 -1 0 -24 -17c-1,-4 -4,-7 -8,-7 -4,1 -7,4 -7,8 1,4 4,7 8,7 1,0 2,-1 2,-1zm26 13l26 13 -22 -16 -4 3zm-25 -20c0,2 -1,3 -3,3 -2,1 -3,-1 -3,-2 -1,-2 1,-3 2,-4 2,0 3,1 4,3z"/>
   <polygon class="fil0" points="193,47 180,64 239,64 239,120 221,120 221,81 144,81 170,47 "/>
   <g>
    <path class="fil0" d="M112 31l92 2 3 -4 -67 1c-5,0 -26,0 -28,1z"/>
    <path class="fil0" d="M107 37c19,0 38,0 57,1l35 0 3 -3 -95 2z"/>
    <polygon class="fil0" points="136,42 134,43 195,45 198,41 "/>
    <path class="fil0" d="M141 25c1,0 46,1 53,1 5,1 10,1 14,1l3 -4 -70 2z"/>
    <polygon class="fil0" points="134,43 136,42 131,43 "/>
    <path class="fil0" d="M128 8l93 2 3 -4 -67 1c-5,1 -26,1 -29,1z"/>
    <path class="fil0" d="M124 14c19,0 38,1 57,1l36 1 3 -4 -96 2z"/>
    <polygon class="fil0" points="153,20 150,20 212,22 215,18 "/>
    <path class="fil0" d="M158 2c1,0 46,1 53,2 5,0 10,0 15,0l3 -4 -71 2z"/>
    <polygon class="fil0" points="150,20 153,20 148,20 "/>
   </g>
   <path class="fil0" d="M315 1c35,0 63,28 63,62 0,12 -4,23 -10,33 -4,-4 -8,-7 -12,-10 4,-7 6,-15 6,-23 0,-26 -21,-46 -47,-46 -25,0 -46,20 -46,46 0,9 3,17 7,24 -4,4 -8,7 -12,11 -7,-10 -11,-22 -11,-35 0,-34 28,-62 62,-62z"/>
  </g>
 </g>
</svg>
