<svg xmlns="http://www.w3.org/2000/svg" viewBox="0 0 226.85 255.73"><defs><style>.cls-1{fill:#010101;}.cls-2{fill:#fff;}</style></defs><g id="Layer_2" data-name="Layer 2"><g id="Layer_1-2" data-name="Layer 1"><path d="M166.57,247.86a8.81,8.81,0,0,0,6.83-7.15c.55-2.5,1.95-4.1,4.45-3.59,2.83.57,3.27,2.81,2.82,5.46-1.2,7.19-8,12.93-16.07,13.08-7,.14-14,0-21,0H19.2C6.52,255.69,0,249.36,0,236.78Q0,151.1.05,65.42c0-4.77-.37-9.67,2.2-14.11a17.11,17.11,0,0,1,5-5.5,23.51,23.51,0,0,0,9-12.74C19,23.83,25.08,17.92,34.47,15.85c9.86-2.16,18.28.9,24.29,8.91C61.19,28,63.13,28.05,66.52,27c20.29-6.29,40.66-12.36,61-18.5,1-.28,1.93-.52,2.86-.86,2.66-.95,4.72-.34,5.47,2.49.69,2.61-.94,4-3.27,4.69l-32.89,10C84.6,29.39,69.56,34.13,54.4,38.46c-3.65,1-4.5,2.68-4.43,6.18.21,11.32-.12,22.65.14,34,.19,8.35-1.33,15.76-9.38,19.94s-15.13,2.14-21.47-4c-1.25,1.56-.42,2.7-.07,3.85,5.17,17.16,10.3,34.34,15.58,51.48.89,2.89,1.29,5.58-2,6.57-3.49,1-4.41-1.85-5.23-4.54Q18.62,122.57,9.67,93.29A11.29,11.29,0,0,0,7.59,89V91.8q0,72.69,0,145.38c0,5.24,1.61,9.09,7,10.68,17.11.31,34.22,1.21,51.3-.51,3.56-.36,6.92.82,10.38.83q44.22.09,88.43,0A5,5,0,0,0,166.57,247.86Z"/><path d="M63.46,246.77c-5.76-1.81-9-6-10.72-11.54C46.17,213.63,39.68,192,33.12,170.4c-.84-2.77-1.42-5.57,2.09-6.54s4.45,2,5.24,4.59q9.6,31.71,19.17,63.41c2.23,7.35,6.3,9.63,13.6,7.43q69.15-20.86,138.26-41.85c7-2.13,9.19-6.26,7-13.35Q193,99.7,167.4,15.34c-2.11-6.95-6.32-9-13.44-7a64.4,64.4,0,0,1-6.74,1.79,3.19,3.19,0,0,1-3.85-2.39c-.6-2,0-3.81,1.93-4.59,12.3-5,24.61-6,29.88,11.62,16.76,55.81,33.75,111.56,50.56,167.36,3.39,11.25-1.07,19.14-12.39,22.6-9.53,2.92-19,5.95-28.62,8.64-2.79.78-3.86,1.93-3.61,4.78a45.58,45.58,0,0,1-.06,7.48c-.17,2.28-1.58,3.84-3.88,3.73a3.64,3.64,0,0,1-3.63-4c0-2.66,0-5.32,0-8.51l-99.77,30C70.32,248.31,66.87,249.2,63.46,246.77Z"/><path d="M98.58,70.49a7.53,7.53,0,0,0-1.49-.08c-3.43.5-7.75.5-8,5s3.92,4.46,7.21,4.82c12.76,1.39,17,4.52,18.88,13.85a12.7,12.7,0,0,1-1.53,9.59c-1.92,3-4.79,5.15-4.81,9.59,0,3.39-5.79,4.2-7.72,1-1.37-2.28-2.91-2.68-5.12-2.91a12.66,12.66,0,0,1-6.51-2.28c-2.51-1.9-3.09-4.39-1.57-7s3.75-2.4,6-1a8.44,8.44,0,0,0,7.61.87c2.56-.89,4.69-2.2,4.56-5.14s-1.24-5.69-4.6-6.31c-3.57-.67-7.22-1-10.82-1.49-5.32-.77-8.56-3.9-10.22-9s-.9-9.57,3-13.26c1.46-1.41,2.15-2.45,1.53-4.63-.67-2.33.8-4.21,3-5.07s4.4-.32,5.2,1.67c1.19,2.91,3.15,2.62,5.53,2.61,2.66,0,5.48.34,6.56,3.46C106.46,68.37,103.59,70.8,98.58,70.49Z"/><path class="cls-1" d="M174.18,129.74c2.59-.2,4.14.55,4.58,2.71s-.51,3.83-2.79,4.53c-4.76,1.47-9.49,3-14.25,4.46L72.2,168.57c-.64.19-1.32.24-1.93.49-2.65,1.12-5.11,1.08-6.15-2-1.1-3.23,1.33-4.43,3.86-5.2,10.63-3.24,21.28-6.43,31.91-9.64l71.44-21.63Z"/><path class="cls-1" d="M80.61,211.08c-2.46-.12-3.87-1.05-4.08-3.24-.24-2.41,1.11-3.57,3.31-4.23,10.48-3.16,20.93-6.43,31.4-9.61q36.18-11,72.38-22c.95-.28,1.92-.51,2.88-.8a3.58,3.58,0,0,1,4.8,2.34c.81,2.23-.28,4-2.44,4.75-3,1.06-6,1.88-9,2.79L84.58,210C83.15,210.39,81.71,210.77,80.61,211.08Z"/><path class="cls-1" d="M180.81,150.43c2.33-.07,3.67.77,4.26,2.56a3.36,3.36,0,0,1-2.14,4.45c-2.76,1.1-5.68,1.81-8.54,2.68L77.78,189.51c-.31.1-.65.13-1,.24-2.69.89-5.46,1.49-6.39-2.2-.83-3.24,1.5-4.2,4.14-5,14.46-4.31,28.9-8.72,43.33-13.11q29.76-9,59.5-18.09C178.66,151,180,150.66,180.81,150.43Z"/><path d="M62.24,148.81c-2.49.21-3.86-.65-4.46-2.4a3.45,3.45,0,0,1,2-4.52,21.72,21.72,0,0,1,3.3-1.12Q113.8,125.37,164.5,110a23.61,23.61,0,0,1,3.83-1,3.47,3.47,0,0,1,4.14,2.73,3.36,3.36,0,0,1-1.81,4.2,19,19,0,0,1-2.8,1L64.55,148.19C63.6,148.48,62.64,148.71,62.24,148.81Z"/><path class="cls-2" d="M53.45,30.6c-3,1.63-5.55,2.2-9,0-6.23-4.06-14.9.16-15.28,7.67-.64,12.79-.32,25.62-.3,38.43,0,2.42,1.27,4.29,4,4.11,3-.21,3.66-2.38,3.65-5q0-16,0-32c0-1.17,0-2.33,0-3.5,0-2.12.77-3.64,3.14-3.54,2,.08,2.88,1.48,2.88,3.37,0,14.65.16,29.3-.13,43.94-.1,5.41-4.79,9-10.16,8.83s-9.37-4.19-9.43-10.2c-.14-14.48-.07-29,0-43.44a15.06,15.06,0,0,1,.87-4.88c2.3-6.52,6.92-10.5,13.77-11.5C44.12,21.93,49.63,24.7,53.45,30.6Z"/><path class="cls-2" d="M14.44,82.82C12.23,75.56,10,68.31,7.83,61a7.54,7.54,0,0,1,.9-5.78C10,53,11.94,50.61,14.4,51.15c2.14.47.9,3.43.93,5.23.13,8.78.06,17.56.06,26.34Z"/></g></g></svg>