<svg xmlns="http://www.w3.org/2000/svg" viewBox="0 0 256.74 255.98"><g id="Layer_2" data-name="Layer 2"><g id="Layer_1-2" data-name="Layer 1"><path d="M198.56,0C221.71,1.23,240.71,12.48,251,35.62c10.15,22.91,7,45.14-10,63.59-18.79,20.46-38.64,40-58.88,59.08-22.56,21.23-58.64,20.39-80.67-.76-7.52-7.22-8.32-17.45-1.92-24.5,6.17-6.8,16.62-7.2,24.32-.94,13.38,10.87,26.29,10.26,38.53-1.92Q188.21,104.45,214,78.63c7.92-8,10.16-17.51,6.21-28-3.75-9.93-11.49-15.27-22-16.11-8.09-.64-14.93,2.35-20.64,8.1-9.62,9.69-19.41,19.22-28.92,29-2.92,3-5.62,4-9.64,2.34-7.76-3.28-16-4.23-24.4-4.45-2.41-.06-4.76-.26-5.8-2.93s.86-4.32,2.51-6Q132.64,39.29,154,17.94C165.78,6.26,180,.36,198.56,0Z"/><path d="M57.82,256c-23-1.39-41.85-12.64-52-35.59-10.09-22.71-7-44.9,9.7-63.22,19.08-20.88,39.26-40.86,60-60.12,22.44-20.85,58.41-19.36,80.27,2,7,6.85,7.69,16.89,1.58,23.78s-16.41,7.48-23.89,1.6c-14.72-11.58-26.8-10.88-40,2.33-17,17-34,33.85-50.87,50.9-10.36,10.48-10.73,25.76-1.18,36,10,10.75,26.13,11.09,37,.51Q93.44,199.51,108,184.4c2.92-3,5.6-4.11,9.63-2.4,7.77,3.29,16,4.2,24.41,4.46,2.38.07,4.77.13,5.87,2.8s-.74,4.36-2.39,6c-14.49,14.49-28.9,29-43.5,43.43C90.35,250.21,76.1,255.75,57.82,256Z"/></g></g></svg>