<svg xmlns="http://www.w3.org/2000/svg" viewBox="0 0 255.6 210.26"><defs><style>.cls-1{fill:#fff;}.cls-2{fill:#060606;}</style></defs><g id="Layer_2" data-name="Layer 2"><g id="Layer_1-2" data-name="Layer 1"><path d="M215.84,160.32c0,11.2,0,22.17,0,33.13,0,11.36-5.43,16.79-16.84,16.8q-91.19,0-182.38,0C5.51,210.24,0,204.75,0,193.75Q0,145,0,96.32C0,85.63,5.62,80.1,16.34,80.05c.17,0,.34,0,.5,0,4.75-.37,10.85,2.07,13.88-1,2.73-2.75,2.3-8.7,3.11-13.27,3-17.19,6-34.4,9-51.59C44.72,3.55,51.53-1.45,62,.37c19,3.3,38,6.76,57,10.15q60.65,10.83,121.28,21.63c12.21,2.15,17,8.62,14.91,20.55q-8.22,47.16-16.34,94.36c-1.75,10.16-8,15-18.23,13.95C219.11,160.86,217.68,160.59,215.84,160.32Z"/><path class="cls-1" d="M108,88.18q45.19,0,90.41,0c7.31,0,9.24,1.88,9.25,9.08q0,48,0,95.91c0,7-1.91,8.89-8.87,8.89H16.92c-6.82,0-8.74-2-8.74-9q0-48,0-95.91c0-6.93,2-8.94,8.87-8.95Q62.5,88.17,108,88.18Z"/><path class="cls-1" d="M122.41,80.05c-26.13,0-52.26-.06-78.39.07-3.59,0-4.46-.72-3.71-4.42C42.46,65,44.25,54.13,46,43.3c.56-3.5,1.06-5.22,5.68-4.39q93.66,17,187.44,33.4c3.32.58,4.15,1.76,3.52,5.21-4.07,22.23-7.92,44.49-11.75,66.76-1.36,7.87-6,10.56-13.52,7.88-2.52-.91-1.46-2.71-1.47-4.09-.08-17.14,0-34.29-.06-51.43,0-11-5.55-16.58-16.52-16.58Q160.87,80,122.41,80.05Z"/><path class="cls-1" d="M58.25,8.14C68.51,10,78.83,11.76,89.14,13.6L232.5,39.18c3.27.59,6.56,1.12,9.79,1.9,4.07,1,5.55,3.86,5.2,7.86,0,.32-.17.64-.23,1C246.33,54.79,247,61.57,244,64s-9.3-.85-14.14-1.71Q141.5,46.65,53.11,31c-3.72-.65-5-2-4-5.71.9-3.54,1.29-7.2,2-10.79C51.82,10.62,54,8.3,58.25,8.14Z"/><path d="M47.72,164.12c-4.82,0-9.64.09-14.46,0C26.92,164,23,160.18,22.74,153.9c-.17-4.15-.19-8.32,0-12.46.31-5.6,3.94-9.42,9.53-9.55q15.45-.36,30.92,0c6,.13,9.63,4.22,9.8,10.35.11,3.82.11,7.65,0,11.47-.19,6.22-4.15,10.24-10.34,10.4C57.7,164.23,52.71,164.12,47.72,164.12Z"/><path class="cls-2" d="M40.26,177.24c3.65,0,7.3,0,10.94,0,2.82,0,4.94,1.12,4.93,4.31,0,3-2.1,4-4.66,4-7.46.08-14.92.06-22.38,0-2.65,0-4.71-1.32-4.74-4,0-2.95,2.07-4.32,5-4.33C33,177.22,36.62,177.23,40.26,177.24Z"/><path class="cls-2" d="M175.55,177.24c3.64,0,7.29,0,10.93,0,2.9,0,5,1.36,5,4.34,0,2.76-2.09,4-4.73,4-7.46,0-14.91.06-22.36,0-2.58,0-4.64-1.09-4.65-4,0-3.17,2.1-4.27,4.93-4.3C168.26,177.2,171.9,177.24,175.55,177.24Z"/><path class="cls-2" d="M85.33,177.23c3.48,0,7,0,10.44,0,3,0,5.42.84,5.42,4.32,0,3.25-2.41,4.06-5.14,4.07-7.12,0-14.24,0-21.36,0-2.79,0-5.19-1-5.21-4,0-3.29,2.36-4.41,5.42-4.37C78.38,177.27,81.85,177.23,85.33,177.23Z"/><path class="cls-2" d="M130.82,185.59c-4,0-7.94.07-11.91,0-2.42-.06-4.21-1.24-4.31-3.86-.11-2.82,1.63-4.36,4.29-4.4q11.67-.17,23.33,0a3.87,3.87,0,0,1,4.08,4.12c0,2.56-1.58,4-4.06,4.08-3.8.13-7.61,0-11.42,0Z"/><path class="cls-1" d="M47.91,156c-4.49,0-9-.07-13.48,0-2.53.05-3.41-1-3.57-3.54C30.05,140,30,140,42.37,140c6.15,0,12.31.11,18.46,0,3-.08,4.2.84,4.13,4-.33,14.62,2,11.73-11.57,12C51.57,156,49.74,156,47.91,156Z"/></g></g></svg>