<svg xmlns="http://www.w3.org/2000/svg" viewBox="0 0 233.6 255.9"><defs><style>.cls-1{fill:#010101;}.cls-2{fill:#0d0d0d;}.cls-3{fill:#0d0e0e;}.cls-4{fill:#040404;}.cls-5{fill:#030303;}.cls-6{fill:#f7f9fa;}.cls-7{fill:#f7f8f9;}.cls-8{fill:#d6d8d9;}.cls-9{fill:#f2f4f5;}</style></defs><g id="Layer_2" data-name="Layer 2"><g id="Layer_1-2" data-name="Layer 1"><path d="M13.06,127.89V27C13.07,16.79,16.78,13,26.8,13c4.83,0,9.68.23,14.49-.06,5.12-.31,8.47,1.6,9.49,6.66.76,3.8,2.71,4.85,6.52,4.78,13.48-.25,27-.22,40.46,0,3.35.05,5.33-.66,6-4.14,1-5.52,4.44-7.66,10-7.31,5.31.34,10.65,0,16,.09,7.45.09,11.7,4.29,11.88,11.77.1,4,.06,8,0,12,0,1.84.08,3.15,2.58,3.14,2.27,0,2.85-.85,2.8-2.93-.12-5,.13-10-.18-15A15.45,15.45,0,0,0,134.06,8a42.59,42.59,0,0,0-7-.44c-33.14,0-66.29.27-99.43-.16-12.51-.16-21,6.83-20,20.1.42,5.3.06,10.66.07,16,0,2.69-.4,5.31-3.71,5.42s-4-2.41-3.95-5.17c0-6.82-.21-13.66.08-20.48C.73,9.92,10.81.11,24.08.07Q77.3-.08,130.51.07c13.52,0,23.55,10,24.09,23.55.17,4.32.18,8.66,0,13-.12,2.71.88,3.37,3.44,3.32,7.66-.15,15.32-.06,23-.06,2.71,0,5.79-.28,5.81,3.63s-3,3.7-5.77,3.7H51.64c-8.54,0-9.93,1.36-9.93,9.71,0,18,.11,36-.09,54,0,3.62,1,4.36,4.43,4.3q17.49-.33,35,0c12.29.2,19.89,10.1,16.79,21.55-2,7.45-8.34,11.92-17.5,12-11.16.12-22.32,0-33.48.12-1.66,0-4.49-1.56-5,1.37-.54,3.23-.69,6.78,3,8.77a10.94,10.94,0,0,0,5.36.87q83.7,0,167.39,0c6.4,0,8.3-1.94,8.3-8.34q0-48,0-95.95c0-6.43-1.85-8.24-8.32-8.29-5.33,0-10.66-.05-16,0-2.59,0-4.37-1.12-4.38-3.68s1.74-3.7,4.36-3.67c6.49.08,13-.17,19.48.11,7.6.34,12.49,6.39,12.51,15.18q.06,32.48,0,65,0,15,0,30c0,12.19-4.76,17-16.78,17-18.82,0-37.64.22-56.45-.14-5.05-.09-5.9,1.47-5.83,6.09.27,18.82.13,37.64.11,56.46,0,16.69-9.69,26.35-26.35,26.36q-51,0-101.93,0c-16.6,0-26.28-9.72-26.28-26.42Q0,148,.07,66.57a33.82,33.82,0,0,1,.06-3.49C.38,60.81,1.65,59.27,4,59.33S7.52,61,7.69,63.26c.11,1.49,0,3,0,4.5v161.4c0,13.28,5.9,19.23,19.14,19.23q50.46,0,100.93,0c13.26,0,19.17-5.94,19.18-19.2,0-19,.05-38-.08-57,0-1.8,1.87-5-2.44-5.12-4.68-.1-2.68,3.41-2.72,5.34-.2,9.16-.09,18.32-.09,27.48,0,3,.31,6.7-4,6.62-3.89-.06-3.7-3.51-3.7-6.4,0-9.66-.14-19.33.09-29,.08-3.37-1-4.13-4.2-4.11-26.48.12-53,.08-79.44.06-11.4,0-16.37-5-16.38-16.44q0-47.22,0-94.44c0-11.43,5-16.37,16.42-16.38,26.31,0,52.63-.08,78.94.1,3.75,0,5-.89,4.65-4.67A83.41,83.41,0,0,1,134,24.8c.08-3-1.35-4.27-4.2-4.27-3.17,0-6.36.25-9.49-.06-5.76-.58-10.39-.11-11.47,7.14-.46,3.1-3.42,4.31-6.52,4.31q-25,0-50,0c-3.9,0-6.5-2.12-7.15-5.71-.91-5-3.72-6.2-8.34-5.78-4,.37-8,.09-12,.09-2.87,0-4.34,1.33-4.17,4.29.05,1,0,2,0,3V228.2c0,7.19,0,7.21,7.26,7.21h98.43c7.57,0,7.57,0,7.58-7.39,0-2.33-.08-4.67,0-7s1.14-4.23,3.92-4.17c2.5,0,3.58,1.71,3.64,3.92a97.84,97.84,0,0,1-.11,12.47c-.59,5.8-4.91,9.6-10.87,9.61q-53.22.1-106.43,0c-6.93,0-11-4.6-11.08-12-.09-11.83,0-23.65,0-35.48Z"/><path class="cls-1" d="M77.34,182.12c6.14,0,12.29-.1,18.44,0,9.2.18,15.14,5.85,15.15,14.27s-5.88,14.18-15.13,14.31q-18.43.27-36.87,0c-9.23-.12-15.14-5.88-15.15-14.28s5.9-14.11,15.12-14.3C65.05,182,71.19,182.12,77.34,182.12Z"/><path class="cls-1" d="M78.86,59.19c4.81,0,9.64-.11,14.45,0,5.2.14,7.59,2.54,7.68,7.69q.15,9.21,0,18.44c-.09,4.84-2.5,7.36-7.41,7.44q-14.7.23-29.41,0c-4.91-.08-7.32-2.61-7.41-7.44-.12-6.31-.06-12.63,0-18.94,0-4.7,2.75-7,7.18-7.17C68.88,59,73.87,59.19,78.86,59.19Z"/><path class="cls-1" d="M190.16,146.09c0,1.83-.73,3.26-2.6,3.76-2.06.55-3.45-.44-4.52-2.19-1-1.57-.38-4.4-3-4.58a56.87,56.87,0,0,0-10.44.12c-1.48.17-1.49,2.33-2,3.66-.92,2.22-2.46,3.85-5,2.93s-3.08-3-2-5.68c3.5-8.94,6.84-17.94,10.24-26.92.77-2,2-3.4,4.38-3.39a3.85,3.85,0,0,1,3.92,2.51c3.65,9.59,7.24,19.19,10.85,28.8A6.07,6.07,0,0,1,190.16,146.09Z"/><path class="cls-1" d="M139,131.52c0-4.16.07-8.32,0-12.48-.09-3.81,1.64-5.51,5.44-5.3,2.49.13,5-.06,7.48.13a11.4,11.4,0,0,1,10.94,10.9c.39,6.28-3.51,11.76-9.85,12.22-5.21.38-7.33,1.94-6.41,7.31.47,2.74-.18,5.72-3.89,5.59s-3.7-3.13-3.69-5.89C139,139.84,139,135.68,139,131.52Z"/><path class="cls-1" d="M200.34,124.57l5.65-8.49c1.37-2.07,3.24-3,5.48-1.63s2,3.56.8,5.66a18.13,18.13,0,0,1-1.62,2.5c-5.27,6.24-7.8,13.26-6.71,21.51.36,2.68.21,5.8-3.6,5.79s-4-3-3.63-5.77c1.12-8.23-1.31-15.27-6.62-21.49a13.67,13.67,0,0,1-2.11-3.36c-.79-1.8-.78-3.7,1.09-4.86a3.58,3.58,0,0,1,5.24,1.07C196.3,118.34,198.16,121.28,200.34,124.57Z"/><path class="cls-2" d="M152.63,74.83a15.52,15.52,0,0,1-.06,3.92c-.56,2.13-2.11,3.49-4.4,2.88-3.67-1-3.07-4.15-3.11-6.89s-.22-5.56,3.2-6.33c2.27-.51,3.8.8,4.34,3a17.67,17.67,0,0,1,.21,3.43Z"/><path class="cls-3" d="M200.81,74.94A19.63,19.63,0,0,1,201,71.5c.48-2.21,2-3.61,4.25-3.11,4,.9,3.23,4.34,3.32,7.22s-.06,5.56-3.48,6.1c-2.23.35-3.74-1.08-4.12-3.33a20.77,20.77,0,0,1,0-3.44Z"/><path class="cls-4" d="M133.31,74.91a32,32,0,0,1-.31,3.94,3.2,3.2,0,0,1-4,2.79c-4.45-1-3-4.8-3.22-7.73-.22-2.69.23-5.17,3.46-5.53a3.28,3.28,0,0,1,3.8,3.07C133.23,72.59,133.23,73.75,133.31,74.91Z"/><path class="cls-4" d="M166.86,74.74c-.18,1.85.39,3.59-.57,5.07s-2.32,2.42-4.19,1.76c-3.09-1.08-2.8-3.76-2.73-6.23s-.75-5.51,2.61-6.78c1.82-.69,3.22.11,4.25,1.57S166.59,73.35,166.86,74.74Z"/><path class="cls-5" d="M195,76.25a6.82,6.82,0,0,1-.18,2.61c-.72,2.37-2.53,3.86-4.86,2.44-4.18-2.56-2-6.82-2-10.37,0-1.78,1.9-2.82,3.64-2.56C195.51,69,195,72.14,195,76.25Z"/><path class="cls-6" d="M63.42,141.06c-6.14,0-12.28-.12-18.42.05-2.56.08-3.49-.62-3.35-3.29a103.39,103.39,0,0,0,0-11.94c-.17-2.8,1-3.23,3.45-3.21,11.95.11,23.9,0,35.85.08,6.43,0,10,3.48,10,9.17S87.2,141,80.85,141C75,141.12,69.23,141.06,63.42,141.06Z"/><path class="cls-6" d="M77.28,189.78c6.31,0,12.62,0,18.93,0,4.41,0,6.91,2.24,7.35,6.46.4,3.81-2.88,6.79-7.46,6.82q-18.67.13-37.36,0c-4.71,0-7.66-2.77-7.63-6.7s3-6.51,7.74-6.57C65,189.72,71.14,189.78,77.28,189.78Z"/><path class="cls-7" d="M79.29,67.24c4.62,0,10.89-1.82,13.44.47,3,2.72.54,9.09,1,13.84.25,2.79-.67,3.75-3.56,3.68-7.49-.19-15-.16-22.46,0-2.71.06-3.91-.55-3.72-3.54.25-4,.16-8,0-12-.07-2.15.64-3,2.83-2.9,4.15.13,8.31,0,12.47,0Z"/><path class="cls-8" d="M175.24,127.69c.7,2.56,3.63,4.78,2.13,7.54-.58,1.08-4.08,1-4.47.09C171.69,132.6,174.12,130.35,175.24,127.69Z"/><path class="cls-9" d="M146.66,125.86c-.1-2.79-.66-5.25,3.2-4.83,3,.32,5.43,1.35,5.4,4.51,0,3.45-2.61,4.35-5.83,4.52C145.07,130.29,147.25,127.08,146.66,125.86Z"/></g></g></svg>