<svg xmlns="http://www.w3.org/2000/svg" viewBox="0 0 255.91 256.1"><defs><style>.cls-1{fill:#f7f9fa;}.cls-2{fill:#f4f6f7;}.cls-3{fill:#f3f5f6;}.cls-4{fill:#f5f7f8;}.cls-5{fill:#eaeced;}.cls-6{fill:#040404;}.cls-7{fill:#050505;}</style></defs><g id="Layer_2" data-name="Layer 2"><g id="Layer_1-2" data-name="Layer 1"><path d="M255.9,53.76c0,9.82,0,19.64,0,29.46,0,5.18-1.65,6.81-6.86,6.83-13.48,0-27,.08-40.45,0a7,7,0,0,0-6.2,2.95c-8,9.87-18,16.28-31.24,15.77-2.46-.1-3.54,1.58-4.9,2.94Q143.61,134.23,121,156.86c-5.15,5.15-6.88,5.18-11.86.21L18.76,66.69c-5.34-5.35-5.34-6.51-.08-11.78q25.59-25.6,51.2-51.19c5-5,6.32-5,11.42.12,4,4,8.15,7.87,12,12.06,2,2.23,3.77,2.46,6.49,1.36,5.84-2.37,11.88-4.22,17.76-6.48a41.91,41.91,0,0,1,33,.85,300.92,300.92,0,0,1,31,16,34,34,0,0,0,10,4.32c2.72.57,5.77,1.84,6.59-2.88.36-2.11,2.74-2.71,4.84-2.76,2.49-.05,5-.13,7.49,0,3.53.2,6.34.3,6-4.85-.18-2.91,2.46-4.42,5.59-4.4,9.32,0,18.64,0,28,0,4.18,0,6,2.15,6,6.23C255.87,33.45,255.9,43.6,255.9,53.76Z"/><path d="M0,210.26c0-9.82,0-19.65,0-29.47,0-5.73,1.28-7,7.12-7,13.16,0,26.32-.11,39.47.06a8,8,0,0,0,7.13-3.3c16.13-20,41-21.06,59.07-2.6a12.14,12.14,0,0,0,5.08,2.91q16.49,5.61,33,11.14c6.2,2.09,11.56,5.39,14.46,11.44,1.37,2.88,2.92,2.81,5.46,2.08,10.85-3.13,21.73-6.13,32.62-9.12,16.58-4.56,30.38,6.45,27.5,22.06-1.52,8.28-7.11,13.64-14.6,16.4Q176,239.78,135.3,254c-10,3.53-20,2.4-29.66-1.82a310.3,310.3,0,0,1-31-16,34.24,34.24,0,0,0-10-4.33c-3-.64-6.1-2.11-6.85,3-.29,1.92-2.57,2.4-4.5,2.42-2.34,0-4.67.11-7,0-3.74-.17-7.23-.63-6.79,5.2.21,2.73-2.44,4.24-5.25,4.25-9.49.07-19,.11-28.48,0-4.11,0-5.81-2.44-5.77-6.5C.09,230.25,0,220.25,0,210.26Z"/><path class="cls-1" d="M102.73,26.79c8.32-3,15-5.65,21.75-7.75,7.43-2.28,14.81-1.46,21.9,1.7A302.8,302.8,0,0,1,176,36.05c5.49,3.21,11.21,5.85,17.68,6.26,2.69.17,3.59,1.26,3.55,4-.16,11.31-.07,22.64-.05,34A8.28,8.28,0,0,1,196,85a28.45,28.45,0,0,1-45.69,3.82A15.77,15.77,0,0,0,143,84c-11.65-3.87-23.25-7.91-34.89-11.82a15.76,15.76,0,0,1-7.53-4.64C97.65,64,97,60,99.59,56s6.14-5.64,10.74-4.22c13.64,4.23,27.23,8.56,40.85,12.85,1.26.4,2.5.9,3.79,1.2,3,.71,5.34-.25,6.37-3.26s-.59-5.29-3.35-6.26a143.89,143.89,0,0,0-17.11-5.3c-13-2.8-23.64-9-31.95-19.46C107.54,29.83,105.31,28.74,102.73,26.79Z"/><path class="cls-1" d="M105.23,41.43C98.5,43,94.11,45.85,91.17,50.61c-1,1.59-2.32,2.08-4,2.6C73.72,57.49,65.94,69.16,67,83.33c.92,12.66,11,23.14,24.31,25.37,12.42,2.07,25.14-5.17,30.37-17.67,1.09-2.62,2-3.56,4.56-2.12a7.46,7.46,0,0,0,2.34.8c7.65,1.2,12.33,4.2,10.74,13.39-.77,4.44,1.5,9.16,4.09,13.09,1.4,2.12,1.23,3.48-.69,4.9a7.19,7.19,0,0,0-1.41,1.4c-4.19,5.47-8.06,8.2-15.7,3.92-8.17-4.58-17.54-2.84-25.8,1.78-2.55,1.43-4,1.57-6.16-.66Q71.21,104.76,48.46,82.32c-2-2-2.66-3.27-1-6.18,5.66-10.17,5.63-20.69-.07-30.89-1.42-2.53-1.53-4.13.86-5.78a6.29,6.29,0,0,0,1.41-1.41c4-5.35,7.78-7.37,14.93-3.58,8.6,4.56,18.19,3,26.72-2,2.31-1.35,3.62-1.24,5.39.72C99.08,35.89,101.86,38.23,105.23,41.43Z"/><path class="cls-1" d="M245.91,53.09c0,7.82-.13,15.65.06,23.47.07,2.83-.74,3.72-3.57,3.57-4.49-.23-9-.15-13.48,0-2.15,0-2.87-.63-2.86-2.84q.12-23.71,0-47.44c0-2.25.8-3,2.89-2.77a8.34,8.34,0,0,0,1,0c5.14.08,11.89-1.77,15,.79s.77,9.65,1,14.75C246,46.09,245.91,49.59,245.91,53.09Z"/><path class="cls-1" d="M76.87,78.32C77,73.8,79.75,68.63,85.29,65c1.26-.83,2.68-2,3.33.49C91.26,75.84,99.23,80,108.46,82.94c5.43,1.7,5.53,2.15,2.68,6.94a18.25,18.25,0,0,1-20.53,8.41C82.2,96,76.85,89.06,76.87,78.32Z"/><path class="cls-2" d="M207.16,57.57c0-6,.23-12-.07-17.9-.22-4.26,2.51-3.27,4.86-3.42,2.54-.16,4.31-.12,4.25,3.47q-.33,18.66,0,37.31c.07,4.09-2.48,3-4.55,3s-4.73,1-4.56-3.07C207.36,70.52,207.16,64,207.16,57.57Z"/><path class="cls-3" d="M86.74,23.66c-6.73,3.72-13.1,4-19.7,1.44-2.32-.91-2.66-1.69-.83-3.73,8.83-9.84,8.78-9.9,18-.55C85,21.64,85.72,22.52,86.74,23.66Z"/><path class="cls-4" d="M38,49.07c4.63,8.42,4.6,15.16-.17,23.58-3.31-3.69-6.33-7.2-9.53-10.53-1.4-1.45-.57-2.11.41-3.13C31.66,55.9,34.56,52.72,38,49.07Z"/><path class="cls-4" d="M103.41,137.72c8.45-4.7,15.07-4.66,23.27.14-3.44,3.17-6.79,6.09-9.93,9.21-1.46,1.46-2.34,1.16-3.64-.12C110.07,143.91,106.9,141,103.41,137.72Z"/><path class="cls-5" d="M149.4,101.71a64.14,64.14,0,0,0,6,3.16c2.27.92,1.86,1.92.39,3.09-1.23,1-2,3.23-3.62,2.82s-1.84-2.58-2.22-4.14S148.57,103.6,149.4,101.71Z"/><path class="cls-1" d="M58.76,200c0-3.5.38-7-.08-10.48-1-7.54,1.89-13.05,7.59-17.72,6.41-5.25,13.43-7.84,21.7-6.39,7.47,1.31,13.92,4.48,18.59,10.62a10.21,10.21,0,0,0,5.35,3.36q17.24,5.76,34.4,11.7a31.12,31.12,0,0,1,5.93,2.53c5.15,3.1,6.93,8.41,4.65,13.21s-7,6.6-12.71,4.83c-9.67-3-19.29-6.14-28.93-9.22-4.43-1.42-8.83-2.91-13.29-4.21-3.12-.9-6.15-.83-7.36,2.94s1.11,5.62,4.24,6.62c14.54,4.64,29.06,9.34,43.68,13.74,9.95,3,19.73-1.74,23.7-11.38a6.69,6.69,0,0,1,5.23-4.43c11.39-3,22.7-6.3,34.05-9.47a25.58,25.58,0,0,1,4.38-1c4.53-.43,8.27.95,10.33,5.29s1.25,8.12-2,11.43a17.37,17.37,0,0,1-6.71,4.15C185.25,225.5,159,235,132.79,244.35c-7.9,2.82-15.72,2-23.3-1.38a283.16,283.16,0,0,1-29.63-15.31c-5.51-3.26-11.3-5.71-17.67-6.34-2.73-.27-3.6-1.13-3.5-3.9C58.91,211.61,58.76,205.78,58.76,200Z"/><path class="cls-1" d="M10,209.94c0-7.64.12-15.29-.06-22.93-.06-2.69.81-3.4,3.37-3.27,5.29.27,12.25-1.74,15.45.9s.93,10,1,15.23c.16,10.8-.14,21.61.15,32.4.1,3.88-1.13,4.92-4.77,4.59a50.79,50.79,0,0,0-10.46,0c-4.2.49-4.88-1.33-4.75-5C10.21,224.57,10,217.25,10,209.94Z"/><path class="cls-4" d="M39.82,205.46c0-6.16.2-12.33-.08-18.48-.15-3.37,1.62-3.49,3.95-3.17,2.1.28,5.2-1.46,5.14,3.08-.18,12.49-.15,25,0,37.46,0,4.12-2.77,2.84-4.81,2.93s-4.41.93-4.26-2.85C40,218.12,39.82,211.78,39.82,205.46Z"/><path class="cls-6" d="M174.4,61.92c3.29.15,5.08,2,5.08,5a4.6,4.6,0,0,1-5.08,4.87A4.51,4.51,0,0,1,169.73,67C169.68,63.86,171.39,62.21,174.4,61.92Z"/><path class="cls-7" d="M81.32,202c-3.09-.45-5-2.21-4.86-5.24s2-4.9,5.23-4.7c2.88.19,4.5,1.95,4.51,4.86C86.21,200.1,84.27,201.57,81.32,202Z"/></g></g></svg>