<svg xmlns="http://www.w3.org/2000/svg" viewBox="0 0 239.75 223.79"><defs><style>.cls-1{fill:#fff;}</style></defs><g id="Layer_2" data-name="Layer 2"><g id="Layer_1-2" data-name="Layer 1"><path d="M119.9,223.79q-56.2,0-112.4,0c-7.15,0-7.78-.59-7.42-7.73Q4,138.75,7.85,61.44c.2-4,1.86-5.65,5.84-5.58,7.66.14,15.32-.07,23,.1C39.28,56,40,55.27,40,52.65c.15-8.13-.92-16.31.81-24.39A35.64,35.64,0,0,1,82.91.77a22.2,22.2,0,0,0,9.7.08,35.74,35.74,0,0,1,43.22,34c.14,5.83.18,11.66,0,17.48-.1,2.78.65,3.69,3.53,3.61,7.32-.2,14.66.11,22-.13,4.65-.15,6.52,1.52,6.68,6.31.52,15.14,1.5,30.26,2.1,45.4.13,3.32,1,4.45,4.58,4.41,16.49-.21,33-.1,49.46-.09,7.14,0,7.3.16,7.84,7.09q3.81,48.54,7.63,97.06c.55,7-.2,7.77-7.31,7.77Q176.1,223.81,119.9,223.79Z"/><path class="cls-1" d="M76,63.9c7.83,0,15.67.26,23.48-.11,4-.19,4.9,1.16,4.46,4.71a58.51,58.51,0,0,0,0,6.49c0,2.71,1,4.71,3.88,4.79s4.09-1.82,4.11-4.56a4.13,4.13,0,0,1,0-.5c.38-3.56-1.67-9,.9-10.28,3.68-1.76,8.78-.47,13.27-.56,1.5,0,2,.56,2.05,2,.71,14.63,1.44,29.26,2.29,43.89.15,2.66-1.55,2-2.89,2-6,0-12,.11-18,0-3.67-.07-5.45,1.34-5.73,5.18-2.27,30.54-4.67,61.07-7,91.61-.54,7.17-.43,7.18-7.44,7.18-25.48,0-51-.08-76.44.08-3.79,0-4.94-.66-4.71-4.81C10.29,174,12.07,136.92,14,99.84c.55-11,1.21-21.94,1.67-32.92.1-2.3.64-3.16,3.12-3.08,6.16.19,12.33.16,18.48,0,2.28-.06,2.79.75,2.75,2.86-.11,6.83-.18,13.66,0,20.48a4.33,4.33,0,0,1-3.08,4.52c-7.75,3.24-10,9-9.13,17.08.71,7.09.23,14.31.11,21.47-.07,4.06,1.73,5.7,5.73,5.63q10.23-.19,20.48,0C58,136,60,134.5,60,130.37c-.11-9.66-.15-19.32,0-29a6.08,6.08,0,0,0-4-6.24c-7-2.94-9.18-8.07-8.16-15.37a62.59,62.59,0,0,0,0-12.47c-.19-3,1-3.53,3.66-3.48C59.68,64,67.84,63.9,76,63.9Z"/><path class="cls-1" d="M151.92,215.8c-14.64,0-29.28-.06-43.92,0-2.87,0-3.84-.31-3.56-3.73,2.36-28.67,4.58-57.35,6.45-86.06.34-5.19,2-6.38,7-6.32,23.12.28,46.25.2,69.37,0,3.65,0,5.14.75,5.42,4.67q3.12,44.28,6.71,88.54c.29,3.55-1.68,2.8-3.52,2.8Q173.88,215.82,151.92,215.8Z"/><path class="cls-1" d="M87.81,55.66c-5.11,0-12,2-14.88-.53-3.25-2.93-.72-10-1-15.2-.63-11.21,2.91-20.45,12.3-27.21,2.79-2,4.84-1.86,7.51.09,7.59,5.57,11.76,12.93,12.11,22.31.22,5.8-.13,11.62.13,17.42.14,3-1.07,3.54-3.7,3.42-4.14-.2-8.3-.06-12.45-.06Z"/><path class="cls-1" d="M206.91,207.87c-2.23-29.27-4.34-57.12-6.53-85-.15-1.9-.32-3.48,2.23-3,2.21.4,5.62-1.79,6,2.84.59,7.12,1.39,14.24,2.09,21.35q2.38,23.83,4.78,47.67a6.39,6.39,0,0,1-.85,4.74C212.25,199.85,210,203.29,206.91,207.87Z"/><path class="cls-1" d="M77.27,8.06C64,19,63.34,33.08,63.86,47.66c.3,8.24,0,8.24-8.16,8.24-7.78,0-7.9,0-7.74-7.69.13-6.28-.72-12.61.82-18.85C51.9,16.67,62.68,8.17,77.27,8.06Z"/><path class="cls-1" d="M99,8.38c14.6-1.19,27.9,10.73,28.75,25.46.38,6.46,0,13,.18,19.43C128,55.62,127,55.86,125,56c-13.13.65-13.47.68-13-12.36C112.43,30.11,110.11,17.87,99,8.38Z"/><path class="cls-1" d="M230.56,204.07c-3.76-4.82-7-8.76-7.47-14.46-2-21.7-4.24-43.37-6.25-65.07-.16-1.67-2.36-4.76,2.29-4.78,3.47,0,5.24.47,5.51,4.58,1.17,18.26,2.7,36.5,4.09,54.75C229.33,187.05,229.9,195,230.56,204.07Z"/><path class="cls-1" d="M51.92,114.9v1c0,13.22,0,13.16-13.51,12-1.94-.17-2.54-.67-2.52-2.59.1-7.15-.11-14.31.1-21.46.12-4,7.32-7.19,10.77-5.36,3.91,2.08,6,4.77,5.22,9.41A45.12,45.12,0,0,0,51.92,114.9Z"/><path class="cls-1" d="M145.57,89.23c.41,6.46.78,12.91,1.23,19.36.14,2,.21,3.9-2.61,3.24-2.12-.5-5.68,2-5.91-2.76-.69-14.24-1.39-28.49-2.22-42.72-.16-2.67,1.39-2.72,3.05-2.4,1.84.37,4.9-1.77,5.1,2.45.36,7.61.94,15.22,1.42,22.83Z"/><path class="cls-1" d="M161.35,88.84c.32,6.79.5,13.6,1,20.38.19,2.49-.9,3-2.77,2.58-1.67-.41-4.58,1.86-4.8-2.2q-1.2-21.61-2.67-43.22c-.19-2.69,1.33-2.75,3-2.42,1.83.36,4.9-1.8,5,2.5.24,7.47.76,14.92,1.17,22.38Z"/><path class="cls-1" d="M228.21,215.6H211.93c1.61-4,4.53-7.18,6.69-10.78.93-1.55,1.65-1.18,2.5.13C223.34,208.37,225.64,211.75,228.21,215.6Z"/><path d="M127.88,157.08c0-5.33,0-10.66,0-16,0-2.87.89-5.15,4-5.12s4,2.34,4,5.19c0,8.5,0,17,0,25.48,0,14,3.29,17.22,17.45,17.18.66,0,1.33,0,2,0,7.58-.21,12.43-5,12.51-12.59.11-9.66.06-19.31,0-29,0-3,0-6.15,3.9-6.26s4.15,3,4.14,6c-.06,9.82.07,19.64-.05,29.47-.14,11.66-8.56,20.15-20.17,20.29-4.46,0-9,.55-13.39-.81a19.79,19.79,0,0,1-14.33-18.4c-.17-5.16,0-10.32,0-15.48Z"/></g></g></svg>