<svg xmlns="http://www.w3.org/2000/svg" viewBox="0 0 206.2 217.11"><defs><style>.cls-1{fill:#f5f5f4;}</style></defs><g id="Layer_2" data-name="Layer 2"><g id="Layer_1-2" data-name="Layer 1"><path class="cls-1" d="M1.16,217.11C-.46,215.65.09,213.7.09,211.94q0-92.91,0-185.82a94.39,94.39,0,0,1,1-9.86C5,5.86,13.14,0,24.37,0Q102.78,0,181.18,0c14.57,0,24.61,10.27,24.76,25,.07,6.66.17,13.32.26,20q-.06,8.09-.11,16.17c-.06,2.16-.15,4.32-.16,6.49q0,54,0,107.92c0,5.11-.8,10.05-3.46,14.38-4.88,7.94-12,12.1-21.53,12.1q-69.91,0-139.84.16c-9.07.31-18.34-1.85-27.12,2.11-.9,0-1.64.18-1.93,1.15C6.59,207.65,3.81,212.32,1.16,217.11Z"/></g></g></svg>