<svg xmlns="http://www.w3.org/2000/svg" viewBox="0 0 267 224.91"><defs><style>.cls-1{fill:#f4f4f3;}.cls-2{fill:#d2d2d2;}</style></defs><g id="Layer_2" data-name="Layer 2"><g id="Layer_1-2" data-name="Layer 1"><path class="cls-1" d="M266.9,12q0,76.92.1,153.83c0,3.42-.67,4.09-4.09,4.09Q133.5,169.78,4.1,170c-3.42,0-4.16-.66-4.1-4.1.26-13.64.11-27.3.11-41,3.05-.26,4.57-2.76,6.06-4.78C23,97.39,51.1,91.06,77.09,99.1c14.7,4.54,29.17,10,44.62,11.51,10.91,1.09,21.7.19,31.31-5.46,10.16-6,15.66-15.55,17.89-26.95,2-10.26,3.88-20.54,9.29-29.71,3.09-5.24,6.67-9.49,13.37-10.71,10.3-1.88,20.07.31,29.89,2.58a20.57,20.57,0,0,0,10.76-.26c13-3.79,21.54-12.6,27.7-24.16C263,13.85,263.85,11.56,266.9,12ZM212.49,118.92c14.3.07,25.35-10.53,25.44-24.4C238,80.19,227.46,69.08,213.64,69,199,68.86,188,79.42,188,93.62S198.54,118.85,212.49,118.92Z"/><path class="cls-2" d="M.11,113.93c2.38,0,3.41-1.89,4.6-3.41C16.29,95.72,30.81,86.42,50,84.78c10.84-.92,21,1.18,31.14,4.39,11.53,3.67,22.92,8.09,35,9.23,11.19,1.06,22.58,2.24,33.36-2.7C162.41,89.81,168.3,78.93,171,65.76c2.3-11.38,4.43-22.71,11.68-32.43a17.23,17.23,0,0,1,13.48-7.22c7.8-.52,15.7-.55,23.19,2,11.88,4.11,21.58-.63,30.34-7.63,6.51-5.2,11.48-11.93,13.26-20.47h3l1,1V12c-3-.48-3.87,1.81-5,3.9-6.16,11.56-14.7,20.37-27.7,24.16a20.57,20.57,0,0,1-10.76.26c-9.82-2.27-19.59-4.46-29.89-2.58-6.7,1.22-10.28,5.47-13.37,10.71-5.41,9.17-7.28,19.45-9.29,29.71-2.23,11.4-7.73,21-17.89,27-9.61,5.65-20.4,6.55-31.31,5.46-15.45-1.55-29.92-7-44.62-11.51-26-8-54.11-1.71-70.92,21-1.49,2-3,4.52-6.06,4.78Z"/><path class="cls-1" d="M266.9,1.05l-1-1C266.76-.14,267.1.19,266.9,1.05Z"/><rect class="cls-1" x="187.96" y="62.48" width="55.91" height="68.28"/><rect class="cls-1" y="124.91" width="267" height="100"/></g></g></svg>