<svg xmlns="http://www.w3.org/2000/svg" viewBox="0 0 173.37 46.89"><defs><style>.cls-1{fill:#1976d2;}</style></defs><g id="Layer_2" data-name="Layer 2"><g id="Layer_1-2" data-name="Layer 1"><path class="cls-1" d="M173.37,44.93c-1.85,1.2-3,1.21-4.84-.76-11.27-12.28-22.87-24.27-34.21-36.5C132,5.2,130.86,5.86,129,8c-7.43,8.69-15.1,17.19-22.48,25.92-2.2,2.61-3.6,2.71-6.19.37C93.3,28,86,21.91,78.69,15.79c-1-.81-1.94-2.7-3.56-.85-9.28,10.67-19.51,20.54-27.91,32h-1L4.16,15.27c-.66-.49-1.34-1-2-1.48C.94,12.77-.92,11.63.53,9.91s3-.23,4.31.75C17.11,19.77,29.5,28.73,41.55,38.1c3.56,2.77,5.34,2.32,8.07-.88,7.67-8.95,15.77-17.53,23.49-26.43,2.11-2.42,3.41-2.54,5.81-.38,7,6.24,14.23,12.15,21.23,18.34,2.3,2,3.62,2.18,5.78-.39,7.46-8.9,15.37-17.45,22.82-26.36,2.38-2.85,3.59-2.48,5.88,0,12.83,13.75,25.81,27.35,38.74,41Z"/></g></g></svg>